# xmcd CD database file
#
# Track frame offsets:
#	150
#	22047
#	37661
#	61079
#	75679
#	95994
#	117539
#	137274
#	156469
#	174719
#	193446
#	210483
#	227993
#	246463
#	262893
#	282610
#	298800
#
# Disc length: 4278 seconds
#
# Revision: 2
# Processed by: cddbd v1.4b41PL1 Copyright (c) Steve Scherf et al.
# Submitted via: Feurio! 1.50.2ß - http://www.feurio.com
#
DISCID=0710b411
DTITLE=Benton - The Very Best Of Benton
DYEAR=1900
DGENRE=
TTITLE0=Carry On
TTITLE1=Only One Day
TTITLE2=Bloodshed
TTITLE3=Something That You Do
TTITLE4=Move On
TTITLE5=My Hour
TTITLE6=After All
TTITLE7=Don't Go
TTITLE8=Fool
TTITLE9=Would You
TTITLE10=Leaving Home
TTITLE11=Fools Paradies
TTITLE12=Promises
TTITLE13=Do You Remember
TTITLE14=Same Old People
TTITLE15=The Life Mrs. O.
TTITLE16=Close Your Eyes
EXTD=
EXTT0=
EXTT1=
EXTT2=
EXTT3=
EXTT4=
EXTT5=
EXTT6=
EXTT7=
EXTT8=
EXTT9=
EXTT10=
EXTT11=
EXTT12=
EXTT13=
EXTT14=
EXTT15=
EXTT16=
PLAYORDER=
